<svg width="1728" height="909" viewBox="0 0 1728 909" fill="none" xmlns="http://www.w3.org/2000/svg">
<path d="M803.5 321.5H291.5V526.5H803.5V321.5Z" stroke="#00E4DA" stroke-width="5" stroke-miterlimit="16" stroke-linejoin="round" stroke-dasharray="10 10"/>
<path d="M806.5 675.5H288.5V886.5H806.5V675.5Z" stroke="#00E4DA" stroke-width="5" stroke-miterlimit="16" stroke-linejoin="round" stroke-dasharray="10 10"/>
<path d="M799.5 682.5H295.5V879.5H799.5V682.5Z" stroke="#00E4DA" stroke-width="3"/>
<path d="M796.5 15.5H292.5V212.5H796.5V15.5Z" stroke="#00E4DA" stroke-width="3"/>
<path d="M1391.5 333.5H1183.5V514.5H1391.5V333.5Z" stroke="#E7151A" stroke-width="5" stroke-miterlimit="16" stroke-linejoin="round" stroke-dasharray="10 10"/>
<path d="M1391.5 690.5H1183.5V871.5H1391.5V690.5Z" stroke="#E7151A" stroke-width="5" stroke-miterlimit="16" stroke-linejoin="round" stroke-dasharray="10 10"/>
<path d="M1383.5 700.5H1192.5V861.5H1383.5V700.5Z" stroke="#E7151A" stroke-width="3"/>
<path d="M1383.5 33.5H1192.5V194.5H1383.5V33.5Z" stroke="#E7151A" stroke-width="3"/>
<path d="M110.754 131V101.528H116.898V125.576H130.626V131H110.754ZM152.258 131H146.546V129.848C145.826 130.568 143.666 131.384 141.314 131.384C136.994 131.384 133.346 128.888 133.346 124.424C133.346 120.344 136.994 117.56 141.65 117.56C143.522 117.56 145.682 118.184 146.546 118.808V117.224C146.546 115.4 145.442 113.912 143.042 113.912C141.362 113.912 140.354 114.68 139.874 115.928H134.21C134.834 112.04 138.338 109.064 143.234 109.064C148.946 109.064 152.258 112.184 152.258 117.32V131ZM146.546 125.144V123.608C146.018 122.456 144.386 121.736 142.658 121.736C140.786 121.736 138.866 122.552 138.866 124.376C138.866 126.248 140.786 127.016 142.658 127.016C144.386 127.016 146.018 126.296 146.546 125.144ZM165.262 138.92H159.406L162.526 131.096L154.318 109.544H160.606L165.55 123.8L170.446 109.544H176.446L165.262 138.92ZM198.5 120.296C198.5 126.872 194.228 131.48 187.988 131.48C181.748 131.48 177.476 126.872 177.476 120.296C177.476 113.672 181.748 109.064 187.988 109.064C194.228 109.064 198.5 113.672 198.5 120.296ZM192.596 120.296C192.596 116.696 190.964 114.104 187.988 114.104C185.012 114.104 183.38 116.696 183.38 120.296C183.38 123.848 185.012 126.44 187.988 126.44C190.964 126.44 192.596 123.848 192.596 120.296ZM221.112 109.544V131H215.16V129.032C213.96 130.376 211.896 131.48 209.4 131.48C204.6 131.48 201.864 128.312 201.864 123.56V109.544H207.816V122.36C207.816 124.616 208.92 126.152 211.272 126.152C213.096 126.152 214.68 125.048 215.112 123.176V109.544H221.112ZM227.341 124.52V114.344H224.077V109.544H227.341V103.736H233.245V109.544H237.949V114.344H233.245V123.752C233.245 125.432 234.157 126.2 235.693 126.2C236.605 126.2 237.613 125.912 238.285 125.48V130.76C237.469 131.192 236.029 131.432 234.445 131.432C230.077 131.432 227.341 129.272 227.341 124.52Z" fill="#00E4DA"/>
<path d="M3.39136 440V410.528H9.53536V434.576H23.2634V440H3.39136ZM44.8955 440H39.1835V438.848C38.4635 439.568 36.3035 440.384 33.9515 440.384C29.6315 440.384 25.9835 437.888 25.9835 433.424C25.9835 429.344 29.6315 426.56 34.2875 426.56C36.1595 426.56 38.3195 427.184 39.1835 427.808V426.224C39.1835 424.4 38.0795 422.912 35.6795 422.912C33.9995 422.912 32.9915 423.68 32.5115 424.928H26.8475C27.4715 421.04 30.9755 418.064 35.8715 418.064C41.5835 418.064 44.8955 421.184 44.8955 426.32V440ZM39.1835 434.144V432.608C38.6555 431.456 37.0235 430.736 35.2955 430.736C33.4235 430.736 31.5035 431.552 31.5035 433.376C31.5035 435.248 33.4235 436.016 35.2955 436.016C37.0235 436.016 38.6555 435.296 39.1835 434.144ZM57.8992 447.92H52.0432L55.1632 440.096L46.9552 418.544H53.2432L58.1872 432.8L63.0832 418.544H69.0832L57.8992 447.92ZM91.1376 429.296C91.1376 435.872 86.8656 440.48 80.6256 440.48C74.3856 440.48 70.1136 435.872 70.1136 429.296C70.1136 422.672 74.3856 418.064 80.6256 418.064C86.8656 418.064 91.1376 422.672 91.1376 429.296ZM85.2336 429.296C85.2336 425.696 83.6016 423.104 80.6256 423.104C77.6496 423.104 76.0176 425.696 76.0176 429.296C76.0176 432.848 77.6496 435.44 80.6256 435.44C83.6016 435.44 85.2336 432.848 85.2336 429.296ZM113.75 418.544V440H107.798V438.032C106.598 439.376 104.534 440.48 102.038 440.48C97.238 440.48 94.502 437.312 94.502 432.56V418.544H100.454V431.36C100.454 433.616 101.558 435.152 103.91 435.152C105.734 435.152 107.318 434.048 107.75 432.176V418.544H113.75ZM119.979 433.52V423.344H116.715V418.544H119.979V412.736H125.883V418.544H130.587V423.344H125.883V432.752C125.883 434.432 126.795 435.2 128.331 435.2C129.243 435.2 130.251 434.912 130.923 434.48V439.76C130.107 440.192 128.667 440.432 127.083 440.432C122.715 440.432 119.979 438.272 119.979 433.52ZM143.225 431.6H149.561C150.377 434.192 152.537 435.392 155.417 435.392C158.393 435.392 160.361 434.048 160.361 431.696C160.361 429.92 159.305 428.96 156.761 428.384L151.481 427.184C147.257 426.224 143.993 423.968 143.993 419.12C143.993 413.792 148.409 410.048 154.601 410.048C161.321 410.048 165.209 413.6 166.169 418.592H160.073C159.401 416.624 157.721 415.088 154.649 415.088C151.865 415.088 149.993 416.432 149.993 418.544C149.993 420.224 151.097 421.232 153.305 421.76L158.681 423.008C163.481 424.112 166.409 426.848 166.409 431.312C166.409 437.024 161.705 440.48 155.465 440.48C148.889 440.48 144.233 437.216 143.225 431.6ZM171.363 433.52V423.344H168.099V418.544H171.363V412.736H177.267V418.544H181.971V423.344H177.267V432.752C177.267 434.432 178.179 435.2 179.715 435.2C180.627 435.2 181.635 434.912 182.307 434.48V439.76C181.491 440.192 180.051 440.432 178.467 440.432C174.099 440.432 171.363 438.272 171.363 433.52ZM194.921 447.92H189.065L192.185 440.096L183.977 418.544H190.265L195.209 432.8L200.105 418.544H206.105L194.921 447.92ZM215.088 408.8V440H209.136V408.8H215.088ZM233.148 432.992H238.668C237.9 437.552 234.54 440.48 229.164 440.48C222.924 440.48 218.748 435.92 218.748 429.296C218.748 422.816 223.068 418.064 229.068 418.064C235.356 418.064 238.812 422.432 238.812 428.72V430.544H224.508C224.7 433.76 226.524 435.68 229.164 435.68C231.18 435.68 232.668 434.816 233.148 432.992ZM229.116 422.912C226.812 422.912 225.18 424.304 224.652 426.944H232.956C232.908 424.688 231.564 422.912 229.116 422.912Z" fill="#00E4DA"/>
<path d="M1005.49 125.576H1009.57C1015.18 125.576 1018.26 121.976 1018.26 116.264C1018.26 110.504 1015.18 106.904 1009.57 106.904H1005.49V125.576ZM999.391 131V101.528H1009.81C1018.74 101.528 1024.35 107.288 1024.35 116.264C1024.35 125.24 1018.74 131 1009.81 131H999.391ZM1034.15 109.544V131H1028.2V109.544H1034.15ZM1034.68 103.352C1034.68 105.368 1033.05 106.76 1031.18 106.76C1029.26 106.76 1027.63 105.368 1027.63 103.352C1027.63 101.384 1029.26 99.944 1031.18 99.944C1033.05 99.944 1034.68 101.384 1034.68 103.352ZM1037.77 124.616H1043.67C1044.15 126.152 1045.49 126.968 1047.27 126.968C1049.09 126.968 1050.29 126.248 1050.29 124.856C1050.29 123.896 1049.62 123.416 1048.13 123.032L1043.81 122.072C1040.55 121.304 1038.25 119.624 1038.25 116.024C1038.25 111.848 1041.99 109.064 1046.79 109.064C1052.21 109.064 1055.19 111.656 1055.91 115.688H1050.25C1049.86 114.488 1048.85 113.576 1046.89 113.576C1045.45 113.576 1044.05 114.248 1044.05 115.592C1044.05 116.456 1044.63 116.936 1045.97 117.272L1050.39 118.28C1054.13 119.192 1056.1 121.256 1056.1 124.52C1056.1 128.888 1052.31 131.48 1047.32 131.48C1042.09 131.48 1038.39 128.984 1037.77 124.616ZM1065.86 129.224V138.92H1059.91V109.544H1065.86V111.32C1066.82 110.168 1068.93 109.064 1071.24 109.064C1077.48 109.064 1081.03 114.248 1081.03 120.296C1081.03 126.344 1077.48 131.48 1071.24 131.48C1068.93 131.48 1066.82 130.376 1065.86 129.224ZM1065.86 116.744V123.8C1066.58 125.288 1068.17 126.296 1069.89 126.296C1073.11 126.296 1075.03 123.704 1075.03 120.296C1075.03 116.84 1073.11 114.248 1069.89 114.248C1068.12 114.248 1066.58 115.304 1065.86 116.744ZM1090.55 99.8V131H1084.6V99.8H1090.55ZM1113.17 131H1107.46V129.848C1106.74 130.568 1104.58 131.384 1102.23 131.384C1097.91 131.384 1094.26 128.888 1094.26 124.424C1094.26 120.344 1097.91 117.56 1102.57 117.56C1104.44 117.56 1106.6 118.184 1107.46 118.808V117.224C1107.46 115.4 1106.36 113.912 1103.96 113.912C1102.28 113.912 1101.27 114.68 1100.79 115.928H1095.13C1095.75 112.04 1099.25 109.064 1104.15 109.064C1109.86 109.064 1113.17 112.184 1113.17 117.32V131ZM1107.46 125.144V123.608C1106.93 122.456 1105.3 121.736 1103.57 121.736C1101.7 121.736 1099.78 122.552 1099.78 124.376C1099.78 126.248 1101.7 127.016 1103.57 127.016C1105.3 127.016 1106.93 126.296 1107.46 125.144ZM1126.18 138.92H1120.32L1123.44 131.096L1115.23 109.544H1121.52L1126.47 123.8L1131.36 109.544H1137.36L1126.18 138.92Z" fill="#E7151A"/>
<path d="M898.125 434.576H902.205C907.821 434.576 910.893 430.976 910.893 425.264C910.893 419.504 907.821 415.904 902.205 415.904H898.125V434.576ZM892.029 440V410.528H902.445C911.373 410.528 916.989 416.288 916.989 425.264C916.989 434.24 911.373 440 902.445 440H892.029ZM926.791 418.544V440H920.839V418.544H926.791ZM927.319 412.352C927.319 414.368 925.687 415.76 923.815 415.76C921.895 415.76 920.263 414.368 920.263 412.352C920.263 410.384 921.895 408.944 923.815 408.944C925.687 408.944 927.319 410.384 927.319 412.352ZM930.403 433.616H936.307C936.787 435.152 938.131 435.968 939.907 435.968C941.731 435.968 942.931 435.248 942.931 433.856C942.931 432.896 942.259 432.416 940.771 432.032L936.451 431.072C933.187 430.304 930.883 428.624 930.883 425.024C930.883 420.848 934.627 418.064 939.427 418.064C944.851 418.064 947.827 420.656 948.547 424.688H942.883C942.499 423.488 941.491 422.576 939.523 422.576C938.083 422.576 936.691 423.248 936.691 424.592C936.691 425.456 937.267 425.936 938.611 426.272L943.027 427.28C946.771 428.192 948.739 430.256 948.739 433.52C948.739 437.888 944.947 440.48 939.955 440.48C934.723 440.48 931.027 437.984 930.403 433.616ZM958.5 438.224V447.92H952.548V418.544H958.5V420.32C959.46 419.168 961.572 418.064 963.876 418.064C970.116 418.064 973.668 423.248 973.668 429.296C973.668 435.344 970.116 440.48 963.876 440.48C961.572 440.48 959.46 439.376 958.5 438.224ZM958.5 425.744V432.8C959.22 434.288 960.804 435.296 962.532 435.296C965.748 435.296 967.668 432.704 967.668 429.296C967.668 425.84 965.748 423.248 962.532 423.248C960.756 423.248 959.22 424.304 958.5 425.744ZM983.191 408.8V440H977.239V408.8H983.191ZM1005.81 440H1000.1V438.848C999.379 439.568 997.219 440.384 994.867 440.384C990.547 440.384 986.899 437.888 986.899 433.424C986.899 429.344 990.547 426.56 995.203 426.56C997.075 426.56 999.235 427.184 1000.1 427.808V426.224C1000.1 424.4 998.995 422.912 996.595 422.912C994.915 422.912 993.907 423.68 993.427 424.928H987.763C988.387 421.04 991.891 418.064 996.787 418.064C1002.5 418.064 1005.81 421.184 1005.81 426.32V440ZM1000.1 434.144V432.608C999.571 431.456 997.939 430.736 996.211 430.736C994.339 430.736 992.419 431.552 992.419 433.376C992.419 435.248 994.339 436.016 996.211 436.016C997.939 436.016 999.571 435.296 1000.1 434.144ZM1018.81 447.92H1012.96L1016.08 440.096L1007.87 418.544H1014.16L1019.1 432.8L1024 418.544H1030L1018.81 447.92ZM1041.23 431.6H1047.56C1048.38 434.192 1050.54 435.392 1053.42 435.392C1056.39 435.392 1058.36 434.048 1058.36 431.696C1058.36 429.92 1057.31 428.96 1054.76 428.384L1049.48 427.184C1045.26 426.224 1041.99 423.968 1041.99 419.12C1041.99 413.792 1046.41 410.048 1052.6 410.048C1059.32 410.048 1063.21 413.6 1064.17 418.592H1058.07C1057.4 416.624 1055.72 415.088 1052.65 415.088C1049.87 415.088 1047.99 416.432 1047.99 418.544C1047.99 420.224 1049.1 421.232 1051.31 421.76L1056.68 423.008C1061.48 424.112 1064.41 426.848 1064.41 431.312C1064.41 437.024 1059.71 440.48 1053.47 440.48C1046.89 440.48 1042.23 437.216 1041.23 431.6ZM1069.36 433.52V423.344H1066.1V418.544H1069.36V412.736H1075.27V418.544H1079.97V423.344H1075.27V432.752C1075.27 434.432 1076.18 435.2 1077.71 435.2C1078.63 435.2 1079.63 434.912 1080.31 434.48V439.76C1079.49 440.192 1078.05 440.432 1076.47 440.432C1072.1 440.432 1069.36 438.272 1069.36 433.52ZM1092.92 447.92H1087.07L1090.19 440.096L1081.98 418.544H1088.27L1093.21 432.8L1098.11 418.544H1104.11L1092.92 447.92ZM1113.09 408.8V440H1107.14V408.8H1113.09ZM1131.15 432.992H1136.67C1135.9 437.552 1132.54 440.48 1127.16 440.48C1120.92 440.48 1116.75 435.92 1116.75 429.296C1116.75 422.816 1121.07 418.064 1127.07 418.064C1133.36 418.064 1136.81 422.432 1136.81 428.72V430.544H1122.51C1122.7 433.76 1124.52 435.68 1127.16 435.68C1129.18 435.68 1130.67 434.816 1131.15 432.992ZM1127.12 422.912C1124.81 422.912 1123.18 424.304 1122.65 426.944H1130.96C1130.91 424.688 1129.56 422.912 1127.12 422.912Z" fill="#E7151A"/>
<path d="M1288 622L1275.01 599.5H1300.99L1288 622Z" fill="#E7151A"/>
<path d="M1294 576H1282V602H1294V576Z" fill="#E7151A"/>
<path d="M545 622L532.01 599.5H557.99L545 622Z" fill="#00E4DA"/>
<path d="M551 576H539V602H551V576Z" fill="#00E4DA"/>
</svg>
